<svg xmlns="http://www.w3.org/2000/svg" viewBox="0 0 600 600"><defs><style>.cls-1{fill:#eabc8e;}.cls-2{fill:#f9c898;}.cls-3{fill:#040000;}</style></defs><g id="ear"><path class="cls-1" d="M479.48,291.4c0,20-.25,58.92-.25,58.92s40.26,41.11,40.26-38.91C519.49,271.4,499.48,271.4,479.48,291.4Z"/><path class="cls-1" d="M119.4,291.4v59.52s-40,40.51-40-39.51C79.39,271.4,99.39,271.4,119.4,291.4Z"/></g><g id="face"><path class="cls-1" d="M299.44,539.71c-28.84,0-79.9-8.25-109.32-28.26s-54.56-50.39-60.34-80C90.77,231.39,78,51.35,299.44,51.35m0,488.36c28.84,0,79.89-8.25,109.31-28.26s54.57-50.39,60.35-80c39-200,51.77-380.09-169.66-380.09"/><path class="cls-2" d="M299.44,539.71c-28.84,0-70.6-28.26-100-48.26s-34.24-30.39-40-60c-39-200-81.4-380.09,140-380.09m0,488.36c28.84,0,70.6-28.26,100-48.26s34.23-30.39,40-60c39-200,81.4-380.09-140-380.09"/></g><g id="nose"><path class="cls-3" d="M323.4,380.73h6.88c0,10.7-3.17,19.5-10.84,19.5-12.31,6.2-26.63,6.21-40,0-8.32.35-14.58-8.14-14.58-19.5H270c0,10.7,9.45,10.7,14.09,10.7,5.95,7.94,24.22,8.8,30.16,0C319.44,391.43,323.4,392.73,323.4,380.73Z"/></g><g id="mouth"><path class="cls-3" d="M308,431.08c3.34,4.33,34.2,9.7,34.2,9.7a18.32,18.32,0,0,0,.7,6.78c-8.69,1.67-33.82-8.77-34.49-8.11-2.43,4-9,7.53-9,7.53s-7.69-3.54-9.91-7.68c-1.34-.67-27.12,10.75-34.37,6.86,0-.21,1.3-5.78,1.3-5.78s23-.19,33.75-9.53c4.28,7.47,9.23,6.28,9.23,6.28S306.66,436.77,308,431.08Z"/></g><g id="beard"><path class="cls-3" d="M374.64,504.45c-4.85-40.35-2.19-67-2.19-67-27.32-11.79-29.65-19.85-73-19.11-49.28-.5-56.22,12.58-72.56,17.59,5.2,2.86,5.51,28.74-1,68.53-6.5,40,53.51,30.86,73.52,50.87C319.44,535.31,379.46,544.46,374.64,504.45Zm-39.69-20c-35.51,0-15.51-20-35.51-26.17-19,5.86,0,26.17-40,26.17-20,0-20-20-20-46.06,20-14,40-14,60-14s40,0,60,14.57C359.45,465.82,359.45,484.45,335,484.45Z"/></g><g id="glasses"><path class="cls-3" d="M159.41,291.4c140,20,140,20,280.06,0v11.87h-20c20,60-100,88.16-100,8.14h-40c0,80-120,51.87-100-8.14h-20Z"/></g><g id="eyebrow"><path class="cls-3" d="M384.66,256.4c-11.49,10.75-35.92,22-54.56,30-.17-.27,4.54,3.21,8.55,12.22,20-13.58,40-20.18,66-15.22C395.43,271.5,388.2,263.84,384.66,256.4Z"/><path class="cls-3" d="M213.42,256.4c11.48,10.75,35.91,22,54.55,30,.17-.27-4.54,3.21-8.54,12.22-20-13.58-40-20.18-66-15.22C202.65,271.5,209.87,263.84,213.42,256.4Z"/></g><g id="hair"><path class="cls-3" d="M299.05,38.16c216.34,0,214.47,149.87,200,233.08-3.6,20.8-4.67,31.42-11,58-1-6.56-1.17-9.8-3.63-20.72-8-31.3-12.3-51.54-12.37-71.3-11.84-8.14-59.85-41.17-60-109-6,9-17.12,38.34-21,34,.39-5.14,2.06-11.34,0-18-12.16,20.09-18.28,24.26-31,31,11.2-20.61,12.45-20.61,18-42-19.33,21.4-18.71,34.93-65,57,17.38-21.85,22.35-29.83,33-53-15.63,14.12-47,54-89,73v-1c2-7.49,2-18,4-28-24.05,18.29-37.56,38.64-81,39v-1c7.54-14.9,19-8,24-46-20.44,26.9-55.91,55.95-77.52,63.45-1.14,34.57-.35,60.26-13.92,85.06C103,259.72,39,38.16,299.05,38.16Z"/></g></svg>